<svg width="80" height="82" viewBox="0 0 80 82" fill="none" xmlns="http://www.w3.org/2000/svg">
<path d="M40 0C62.0914 0 80 17.9086 80 40C80 62.0914 62.0914 80 40 80C34.3542 80 28.9826 78.828 24.1123 76.7178C18.9117 80.2829 14.8415 80.5139 8 81.0869C11.2922 76.5928 12.8783 74.6643 12.9795 69.4922C5.00243 62.1797 0 51.6745 0 40C0 17.9086 17.9086 0 40 0ZM40 8C22.3269 8 8 22.3269 8 40C8 57.6731 22.3269 72 40 72C57.6731 72 72 57.6731 72 40C72 22.3269 57.6731 8 40 8ZM40 17C52.7025 17 63 27.2975 63 40C63 52.7025 52.7025 63 40 63C27.2975 63 17 52.7025 17 40C17 27.2975 27.2975 17 40 17ZM40 25C31.7157 25 25 31.7157 25 40C25 48.2843 31.7157 55 40 55C48.2843 55 55 48.2843 55 40C55 31.7157 48.2843 25 40 25ZM40 34C43.3137 34 46 36.6863 46 40C46 43.3137 43.3137 46 40 46C36.6863 46 34 43.3137 34 40C34 36.6863 36.6863 34 40 34Z" fill="white"/>
</svg>
