<svg width="80" height="82" viewBox="0 0 80 82" fill="none" xmlns="http://www.w3.org/2000/svg">
<path d="M40 0C62.0914 0 80 17.9086 80 40C80 62.0914 62.0914 80 40 80C34.3545 80 28.9834 78.8278 24.1133 76.7178C18.9123 80.2834 14.8418 80.5139 8 81.0869C11.2922 76.5928 12.8783 74.6643 12.9795 69.4922C5.00243 62.1797 0 51.6745 0 40C0 17.9086 17.9086 0 40 0ZM30.6113 32.207C30.5573 34.3181 28.271 35.4768 27.5996 33.4746C27.403 32.8881 27.309 32.2554 27.3389 31.5986L27.998 17.0908L27.75 17.1201C25.8594 17.3414 24.3863 18.8647 24.2285 20.7617L23.3428 31.417C23.1501 35.6557 25.8616 39.3288 29.6855 40.5605L28.3096 60.5107C28.1422 62.9384 30.0666 64.9998 32.5 65C34.9334 64.9998 36.8578 62.9384 36.6904 60.5107L35.3135 40.5596C39.1375 39.328 41.8499 35.6558 41.6572 31.417L40.7705 20.7617C40.6127 18.8646 39.1398 17.3413 37.249 17.1201L37.002 17.0908L37.6611 31.5986C37.691 32.2554 37.597 32.8881 37.4004 33.4746C36.729 35.4768 34.4417 34.3181 34.3877 32.207L34 17H31L30.6113 32.207ZM48 60.8086C48 63.1233 49.8767 65 52.1914 65C54.7336 64.9998 56.6901 62.7547 56.3428 60.2363L54.2637 45.165C57.2037 41.9613 59 37.6911 59 33C59 25.5417 54.4638 19.1432 48 16.4121V60.8086Z" fill="white"/>
</svg>
